<svg width="13" height="12" viewBox="0 0 13 12" fill="none" xmlns="http://www.w3.org/2000/svg">
<path d="M12.9137 11.6126C12.872 11.6847 12.8122 11.7446 12.74 11.7862C12.6679 11.8278 12.5861 11.8497 12.5029 11.8497H1.12121C1.03801 11.8496 0.956288 11.8276 0.884263 11.786C0.812238 11.7443 0.75244 11.6844 0.710875 11.6124C0.66931 11.5403 0.64744 11.4585 0.647461 11.3753C0.647482 11.2921 0.669394 11.2104 0.710997 11.1383C1.61382 9.57751 3.00511 8.45831 4.62877 7.92776C3.82564 7.44965 3.20165 6.72111 2.85264 5.85404C2.50362 4.98697 2.44888 4.02931 2.69682 3.12812C2.94476 2.22692 3.48167 1.43203 4.2251 0.865519C4.96852 0.299004 5.87736 -0.0078125 6.81204 -0.0078125C7.74671 -0.0078125 8.65555 0.299004 9.39898 0.865519C10.1424 1.43203 10.6793 2.22692 10.9273 3.12812C11.1752 4.02931 11.1205 4.98697 10.7714 5.85404C10.4224 6.72111 9.79844 7.44965 8.9953 7.92776C10.619 8.45831 12.0103 9.57751 12.9131 11.1383C12.9548 11.2104 12.9768 11.2921 12.9769 11.3754C12.977 11.4586 12.9552 11.5404 12.9137 11.6126Z" fill="white"/>
</svg>
