<svg width="12" height="12" viewBox="0 0 12 12" fill="none" xmlns="http://www.w3.org/2000/svg">
<path d="M2.78646 0.447266C2.87896 0.447266 2.96766 0.484009 3.03307 0.549412C3.09847 0.614815 3.13521 0.703521 3.13521 0.796016V1.14477H8.71521V0.796016C8.71521 0.703521 8.75196 0.614815 8.81736 0.549412C8.88276 0.484009 8.97147 0.447266 9.06396 0.447266C9.15646 0.447266 9.24516 0.484009 9.31057 0.549412C9.37597 0.614815 9.41271 0.703521 9.41271 0.796016V1.14477H10.1102C10.4802 1.14477 10.835 1.29174 11.0966 1.55335C11.3582 1.81496 11.5052 2.16979 11.5052 2.53977V10.2123C11.5052 10.5822 11.3582 10.9371 11.0966 11.1987C10.835 11.4603 10.4802 11.6073 10.1102 11.6073H1.74021C1.37024 11.6073 1.01541 11.4603 0.753801 11.1987C0.492188 10.9371 0.345215 10.5822 0.345215 10.2123V3.93477H11.5052V3.23727H0.345215V2.53977C0.345215 2.16979 0.492188 1.81496 0.753801 1.55335C1.01541 1.29174 1.37024 1.14477 1.74021 1.14477H2.43771V0.796016C2.43771 0.703521 2.47446 0.614815 2.53986 0.549412C2.60526 0.484009 2.69397 0.447266 2.78646 0.447266Z" fill="white"/>
</svg>
