<svg width="15" height="15" viewBox="0 0 15 15" fill="none" xmlns="http://www.w3.org/2000/svg">
<path d="M12.7142 11.2023C12.9932 10.7141 13.2025 10.1561 13.2025 9.52832C13.2025 7.78457 11.8075 6.38957 10.0637 6.38957C8.31996 6.38957 6.92496 7.78457 6.92496 9.52832C6.92496 11.2721 8.31996 12.6671 10.0637 12.6671C10.6915 12.6671 11.2495 12.4578 11.7377 12.1788L13.9697 14.4108L14.9462 13.4343L12.7142 11.2023ZM10.0637 11.2721C9.08721 11.2721 8.31996 10.5048 8.31996 9.52832C8.31996 8.55182 9.08721 7.78457 10.0637 7.78457C11.0402 7.78457 11.8075 8.55182 11.8075 9.52832C11.8075 10.5048 11.0402 11.2721 10.0637 11.2721ZM7.62246 13.3646V14.7596C3.77226 14.7596 0.647461 11.6348 0.647461 7.78457C0.647461 3.93437 3.77226 0.80957 7.62246 0.80957C10.9984 0.80957 13.8093 3.20897 14.458 6.38957H13.0141C12.7966 5.54688 12.3849 4.76675 11.8121 4.11155C11.2392 3.45634 10.5211 2.94421 9.71496 2.6161V2.90207C9.71496 3.66932 9.08721 4.29707 8.31996 4.29707H6.92496V5.69207C6.92496 6.0757 6.61109 6.38957 6.22746 6.38957H4.83246V7.78457H6.22746V9.87707H5.52996L2.18894 6.53605C2.09826 6.9406 2.04246 7.35212 2.04246 7.78457C2.04246 10.8605 4.54649 13.3646 7.62246 13.3646Z" fill="white"/>
</svg>
