<svg width="15" height="15" viewBox="0 0 15 15" fill="none" xmlns="http://www.w3.org/2000/svg">
<path d="M6.22746 13.3323C6.22746 14.0996 5.59971 14.7273 4.83246 14.7273C4.06521 14.7273 3.43746 14.0996 3.43746 13.3323C3.43746 12.5651 4.06521 11.9373 4.83246 11.9373C5.59971 11.9373 6.22746 12.5651 6.22746 13.3323ZM11.8075 11.9373C11.0402 11.9373 10.4125 12.5651 10.4125 13.3323C10.4125 14.0996 11.0402 14.7273 11.8075 14.7273C12.5747 14.7273 13.2025 14.0996 13.2025 13.3323C13.2025 12.5651 12.5747 11.9373 11.8075 11.9373ZM4.97196 9.70534V9.63559L5.59971 8.44984H10.7612C11.2495 8.44984 11.7377 8.17084 11.947 7.75234L14.6672 2.86984L13.4815 2.17234L10.7612 7.05484H5.87871L2.94921 0.777344H0.647461V2.17234H2.04246L4.55346 7.47334L3.57696 9.14734C3.50721 9.35659 3.43746 9.56584 3.43746 9.84484C3.43746 10.6121 4.06521 11.2398 4.83246 11.2398H13.2025V9.84484H5.11146C5.04171 9.84484 4.97196 9.77509 4.97196 9.70534ZM8.31996 5.86909L7.90146 5.52034C6.50646 4.19509 5.52996 3.35809 5.52996 2.31184C5.52996 1.47484 6.22746 0.777344 7.06446 0.777344C7.55271 0.777344 8.04096 0.986594 8.31996 1.33534C8.59896 0.986594 9.08721 0.777344 9.57546 0.777344C10.4125 0.777344 11.11 1.40509 11.11 2.31184C11.11 3.35809 10.1335 4.19509 8.73846 5.52034L8.31996 5.86909Z" fill="white"/>
</svg>
