<svg width="15" height="15" viewBox="0 0 15 15" fill="none" xmlns="http://www.w3.org/2000/svg">
<path d="M7.62247 0.442383C11.4748 0.442383 14.5975 3.56509 14.5975 7.41738C14.5975 11.2697 11.4748 14.3924 7.62247 14.3924C6.38983 14.3944 5.17889 14.0682 4.11405 13.4473L0.650261 14.3924L1.59328 10.9272C0.971873 9.86203 0.645411 8.65056 0.647471 7.41738C0.647471 3.56509 3.77018 0.442383 7.62247 0.442383ZM5.24539 4.13913L5.10589 4.14471C5.01558 4.15021 4.92732 4.17394 4.84642 4.21446C4.77076 4.25731 4.70169 4.31087 4.64136 4.37349C4.55766 4.45231 4.51023 4.52067 4.45931 4.58693C4.20132 4.92236 4.06241 5.33417 4.06452 5.75733C4.06592 6.09911 4.1552 6.43182 4.2947 6.7429C4.57998 7.37205 5.04939 8.03816 5.66877 8.65545C5.81804 8.80401 5.96451 8.95328 6.12215 9.09208C6.89176 9.76968 7.80888 10.2583 8.80055 10.5192L9.19673 10.5798C9.32577 10.5868 9.4548 10.5771 9.58454 10.5708C9.78768 10.5603 9.98603 10.5053 10.1656 10.4097C10.2569 10.3626 10.346 10.3114 10.4327 10.2562C10.4327 10.2562 10.4627 10.2367 10.5199 10.1934C10.614 10.1237 10.6719 10.0742 10.7501 9.99255C10.808 9.93257 10.8582 9.86212 10.8965 9.78191C10.9509 9.66822 11.0053 9.45129 11.0277 9.27064C11.0444 9.13253 11.0395 9.05721 11.0374 9.01047C11.0346 8.93584 10.9726 8.85842 10.9049 8.82563L10.499 8.64359C10.499 8.64359 9.89214 8.37924 9.52106 8.21044C9.48224 8.19349 9.44063 8.18379 9.39831 8.18184C9.35058 8.17694 9.30236 8.18231 9.25689 8.19759C9.21141 8.21287 9.16973 8.2377 9.13465 8.27042C9.13116 8.26903 9.08443 8.30879 8.58014 8.9198C8.55119 8.95869 8.51132 8.98809 8.46561 9.00423C8.4199 9.02038 8.37041 9.02255 8.32346 9.01047C8.27802 8.99829 8.2335 8.98291 8.19024 8.96444C8.10375 8.92817 8.07375 8.91422 8.01447 8.88911C7.61415 8.71442 7.24351 8.47838 6.9159 8.18952C6.82802 8.11279 6.74641 8.02909 6.66271 7.94818C6.3883 7.68538 6.14916 7.38809 5.95126 7.06375L5.91011 6.99749C5.88055 6.95296 5.85665 6.90493 5.83896 6.8545C5.81246 6.75197 5.88151 6.66966 5.88151 6.66966C5.88151 6.66966 6.051 6.48413 6.12982 6.38369C6.20655 6.28604 6.27141 6.19118 6.31326 6.12352C6.39557 5.991 6.42138 5.85498 6.37813 5.74966C6.18283 5.27257 5.98056 4.79757 5.7727 4.32606C5.73155 4.2326 5.60949 4.16564 5.49858 4.15238C5.46092 4.1482 5.42325 4.14402 5.38559 4.14123C5.29192 4.13657 5.19805 4.1375 5.1045 4.14402L5.24539 4.13913Z" fill="white"/>
</svg>
