<?xml version="1.0" encoding="UTF-8"?>
<!DOCTYPE svg PUBLIC "-//W3C//DTD SVG 1.1//EN" "http://www.w3.org/Graphics/SVG/1.1/DTD/svg11.dtd">
<!-- Creator: CorelDRAW 2020 (64-Bit) -->
<svg xmlns="http://www.w3.org/2000/svg" xml:space="preserve" width="44.3442mm" height="13.6525mm" version="1.1" style="shape-rendering:geometricPrecision; text-rendering:geometricPrecision; image-rendering:optimizeQuality; fill-rule:evenodd; clip-rule:evenodd"
viewBox="0 0 174.86 53.84"
 xmlns:xlink="http://www.w3.org/1999/xlink"
 xmlns:xodm="http://www.corel.com/coreldraw/odm/2003">
 <defs>
  <style type="text/css">
   <![CDATA[
    .fil3 {fill:#FEFEFE}
    .fil0 {fill:#240B5C}
    .fil1 {fill:#FEFEFE;fill-rule:nonzero}
    .fil2 {fill:url(#id0)}
    .fil4 {fill:url(#id1);fill-rule:nonzero}
   ]]>
  </style>
  <linearGradient id="id0" gradientUnits="objectBoundingBox" x1="3.21427%" y1="73.9249%" x2="96.7857%" y2="26.0751%">
   <stop offset="0" style="stop-opacity:1; stop-color:#F3297F"/>
   <stop offset="0.470588" style="stop-opacity:1; stop-color:#A176BC"/>
   <stop offset="1" style="stop-opacity:1; stop-color:#4EC3F9"/>
  </linearGradient>
  <linearGradient id="id1" gradientUnits="userSpaceOnUse" x1="73.29" y1="38.1" x2="169.6" y2="38.1">
   <stop offset="0" style="stop-opacity:1; stop-color:#FD2178"/>
   <stop offset="1" style="stop-opacity:1; stop-color:#5BBFFD"/>
  </linearGradient>
 </defs>
 <g id="Capa_x0020_1">
  <metadata id="CorelCorpID_0Corel-Layer"/>
  <g id="_1568386418144">
   <rect class="fil0" y="-0" width="174.86" height="53.84" rx="4.42" ry="6.27"/>
   <path class="fil1" d="M41.47 18.79c-0.45,2.25 -2.65,3.71 -4.9,3.26 -2.25,-0.45 -3.71,-2.65 -3.26,-4.9 0.32,-1.59 0.96,-3.07 1.82,-4.4 0.88,-1.36 2,-2.6 3.25,-3.67 3.03,-2.6 6.84,-3.73 10.54,-3.44 3.7,0.29 7.29,1.98 9.89,5.02 2.6,3.03 3.73,6.84 3.44,10.54 -0.28,3.7 -1.98,7.29 -5.01,9.89l-16.72 14.33c-1.74,1.49 -4.37,1.29 -5.87,-0.45 -1.5,-1.74 -1.29,-4.37 0.45,-5.87l16.72 -14.33c1.3,-1.11 2.02,-2.64 2.14,-4.21 0.12,-1.57 -0.36,-3.19 -1.47,-4.49 -1.11,-1.3 -2.64,-2.02 -4.21,-2.14 -1.57,-0.12 -3.19,0.36 -4.49,1.47 -0.65,0.56 -1.23,1.19 -1.66,1.85 -0.34,0.52 -0.58,1.05 -0.68,1.54z"/>
   <path class="fil2" d="M23.75 5.99l11.64 0.08c-1.11,0.59 -2,1.47 -2.87,2.58 -1.04,1.34 -1.62,2.51 -2.75,3.87 -0.55,0.66 -1,1.26 -1.73,1.56 -0.81,0.25 -1.8,0.2 -2.67,0.24l-1.65 -0.01c-2.53,-0.02 -4.79,0.9 -6.42,2.38 -1.56,1.42 -2.53,3.34 -2.55,5.43l-0.17 20.47c-0.02,2.3 -1.89,4.14 -4.19,4.12 -2.3,-0.02 -4.14,-1.89 -4.12,-4.19l0.17 -20.47c0.04,-4.52 2.03,-8.6 5.25,-11.52 3.11,-2.82 7.36,-4.56 12.06,-4.53z"/>
   <circle class="fil2" cx="25.45" cy="27.64" r="4.28"/>
   <circle class="fil3" cx="58.11" cy="42.14" r="4.28"/>
   <path class="fil4" d="M75.32 30.08l4.31 0c1.12,0 2.08,0.1 2.89,0.31 0.81,0.21 1.53,0.59 2.19,1.15 1.7,1.43 2.55,3.61 2.55,6.52 0,0.96 -0.08,1.84 -0.25,2.64 -0.17,0.8 -0.44,1.51 -0.79,2.15 -0.36,0.64 -0.81,1.21 -1.37,1.71 -0.44,0.38 -0.92,0.69 -1.44,0.93 -0.52,0.24 -1.08,0.4 -1.68,0.49 -0.6,0.09 -1.27,0.14 -2.02,0.14l-4.31 0c-0.6,0 -1.05,-0.09 -1.36,-0.27 -0.3,-0.18 -0.5,-0.43 -0.59,-0.75 -0.1,-0.32 -0.14,-0.75 -0.14,-1.26l0 -11.77c0,-0.7 0.16,-1.21 0.48,-1.52 0.32,-0.31 0.84,-0.47 1.55,-0.47zm1.28 2.58l0 10.89 2.51 0c0.55,0 0.98,-0.01 1.29,-0.05 0.31,-0.03 0.63,-0.1 0.97,-0.22 0.33,-0.12 0.62,-0.28 0.87,-0.49 1.11,-0.92 1.66,-2.5 1.66,-4.75 0,-1.58 -0.24,-2.77 -0.73,-3.56 -0.49,-0.79 -1.09,-1.29 -1.8,-1.51 -0.71,-0.21 -1.58,-0.32 -2.59,-0.32l-2.19 0zm18 6.61l-1.16 0 0 5.15c0,0.68 -0.15,1.18 -0.46,1.5 -0.3,0.32 -0.7,0.48 -1.19,0.48 -0.53,0 -0.94,-0.17 -1.23,-0.5 -0.29,-0.34 -0.43,-0.83 -0.43,-1.48l0 -12.34c0,-0.7 0.16,-1.21 0.48,-1.52 0.32,-0.31 0.84,-0.47 1.55,-0.47l5.38 0c0.74,0 1.38,0.03 1.9,0.09 0.53,0.06 1,0.19 1.43,0.38 0.51,0.21 0.97,0.52 1.36,0.91 0.39,0.4 0.69,0.85 0.89,1.37 0.21,0.52 0.31,1.08 0.31,1.66 0,1.2 -0.34,2.15 -1.03,2.87 -0.69,0.71 -1.73,1.22 -3.13,1.52 0.59,0.31 1.15,0.76 1.68,1.36 0.53,0.6 1.01,1.24 1.43,1.91 0.42,0.68 0.75,1.28 0.98,1.83 0.23,0.54 0.35,0.91 0.35,1.12 0,0.21 -0.07,0.42 -0.21,0.63 -0.14,0.21 -0.32,0.37 -0.56,0.49 -0.24,0.12 -0.51,0.18 -0.82,0.18 -0.37,0 -0.68,-0.09 -0.94,-0.26 -0.25,-0.17 -0.47,-0.39 -0.65,-0.65 -0.18,-0.26 -0.43,-0.65 -0.74,-1.16l-1.33 -2.17c-0.48,-0.79 -0.9,-1.4 -1.27,-1.81 -0.38,-0.42 -0.76,-0.7 -1.14,-0.86 -0.38,-0.15 -0.87,-0.23 -1.46,-0.23zm1.89 -6.74l-3.05 0 0 4.41 2.96 0c0.79,0 1.46,-0.07 2.01,-0.2 0.54,-0.13 0.95,-0.37 1.24,-0.69 0.29,-0.33 0.43,-0.77 0.43,-1.34 0,-0.45 -0.11,-0.84 -0.35,-1.18 -0.23,-0.34 -0.55,-0.59 -0.96,-0.76 -0.38,-0.16 -1.14,-0.24 -2.28,-0.24zm20.83 0.07l-7.45 0 0 3.94 6.86 0c0.51,0 0.88,0.11 1.13,0.33 0.25,0.22 0.37,0.52 0.37,0.88 0,0.36 -0.12,0.66 -0.37,0.89 -0.25,0.23 -0.62,0.34 -1.14,0.34l-6.86 0 0 4.57 7.71 0c0.52,0 0.91,0.12 1.18,0.35 0.27,0.24 0.4,0.55 0.4,0.95 0,0.38 -0.13,0.69 -0.4,0.92 -0.26,0.24 -0.65,0.35 -1.18,0.35l-8.99 0c-0.72,0 -1.24,-0.16 -1.55,-0.47 -0.32,-0.31 -0.48,-0.82 -0.48,-1.52l0 -12.06c0,-0.47 0.07,-0.85 0.21,-1.14 0.14,-0.29 0.36,-0.51 0.66,-0.65 0.3,-0.13 0.68,-0.2 1.15,-0.2l8.73 0c0.53,0 0.92,0.12 1.17,0.34 0.26,0.23 0.38,0.53 0.38,0.9 0,0.38 -0.13,0.69 -0.38,0.92 -0.25,0.23 -0.65,0.34 -1.17,0.34zm14.91 11.72l-0.78 -2.01 -6.64 0 -0.78 2.05c-0.3,0.8 -0.56,1.34 -0.78,1.62 -0.21,0.28 -0.57,0.42 -1.06,0.42 -0.41,0 -0.78,-0.15 -1.1,-0.45 -0.32,-0.3 -0.48,-0.64 -0.48,-1.02 0,-0.22 0.04,-0.45 0.11,-0.68 0.08,-0.24 0.2,-0.56 0.37,-0.98l4.17 -10.41c0.12,-0.3 0.26,-0.66 0.43,-1.08 0.17,-0.42 0.35,-0.77 0.54,-1.05 0.19,-0.28 0.44,-0.5 0.75,-0.67 0.31,-0.17 0.69,-0.26 1.14,-0.26 0.46,0 0.85,0.09 1.16,0.26 0.31,0.17 0.55,0.39 0.74,0.66 0.19,0.27 0.35,0.56 0.48,0.87 0.13,0.31 0.3,0.72 0.49,1.24l4.27 10.35c0.33,0.79 0.5,1.36 0.5,1.72 0,0.37 -0.16,0.71 -0.47,1.02 -0.32,0.31 -0.7,0.46 -1.14,0.46 -0.26,0 -0.48,-0.04 -0.67,-0.14 -0.18,-0.09 -0.34,-0.21 -0.47,-0.37 -0.13,-0.16 -0.26,-0.4 -0.4,-0.72 -0.15,-0.32 -0.27,-0.61 -0.38,-0.86zm-6.55 -4.46l4.88 0 -2.46 -6.61 -2.42 6.61zm18.02 3.85l-2.62 -10.22 0 11.07c0,0.61 -0.14,1.07 -0.42,1.38 -0.28,0.31 -0.65,0.46 -1.1,0.46 -0.44,0 -0.81,-0.15 -1.09,-0.46 -0.28,-0.3 -0.42,-0.76 -0.42,-1.38l0 -12.69c0,-0.7 0.19,-1.17 0.56,-1.42 0.37,-0.24 0.87,-0.37 1.5,-0.37l1.03 0c0.62,0 1.06,0.06 1.34,0.16 0.28,0.11 0.49,0.31 0.62,0.59 0.13,0.28 0.29,0.75 0.46,1.39l2.37 8.79 2.37 -8.79c0.17,-0.64 0.32,-1.11 0.46,-1.39 0.13,-0.28 0.34,-0.48 0.62,-0.59 0.28,-0.11 0.73,-0.16 1.34,-0.16l1.02 0c0.63,0 1.13,0.12 1.51,0.37 0.37,0.25 0.56,0.72 0.56,1.42l0 12.69c0,0.61 -0.14,1.07 -0.42,1.38 -0.28,0.31 -0.65,0.46 -1.11,0.46 -0.44,0 -0.8,-0.15 -1.08,-0.46 -0.28,-0.31 -0.42,-0.77 -0.42,-1.38l0 -11.07 -2.62 10.22c-0.17,0.66 -0.31,1.15 -0.42,1.46 -0.11,0.31 -0.3,0.59 -0.59,0.84 -0.29,0.26 -0.69,0.38 -1.2,0.38 -0.39,0 -0.71,-0.08 -0.98,-0.25 -0.27,-0.16 -0.48,-0.37 -0.62,-0.63 -0.15,-0.26 -0.27,-0.54 -0.35,-0.85 -0.09,-0.31 -0.18,-0.64 -0.26,-0.97zm25.9 -2.39c0,0.97 -0.26,1.84 -0.76,2.61 -0.51,0.77 -1.25,1.38 -2.23,1.82 -0.98,0.44 -2.14,0.65 -3.49,0.65 -1.61,0 -2.94,-0.3 -3.99,-0.89 -0.74,-0.43 -1.34,-1 -1.81,-1.72 -0.46,-0.72 -0.7,-1.42 -0.7,-2.1 0,-0.39 0.14,-0.73 0.42,-1.01 0.28,-0.28 0.63,-0.42 1.06,-0.42 0.35,0 0.64,0.11 0.88,0.33 0.24,0.22 0.45,0.54 0.62,0.97 0.21,0.51 0.43,0.94 0.67,1.28 0.24,0.34 0.58,0.63 1.02,0.85 0.44,0.22 1.02,0.33 1.73,0.33 0.98,0 1.78,-0.22 2.39,-0.67 0.61,-0.45 0.92,-1.01 0.92,-1.68 0,-0.53 -0.16,-0.97 -0.49,-1.3 -0.33,-0.33 -0.76,-0.59 -1.28,-0.76 -0.52,-0.18 -1.22,-0.36 -2.1,-0.56 -1.17,-0.27 -2.16,-0.59 -2.94,-0.95 -0.79,-0.36 -1.42,-0.85 -1.88,-1.48 -0.46,-0.62 -0.7,-1.4 -0.7,-2.33 0,-0.88 0.24,-1.67 0.73,-2.35 0.49,-0.68 1.2,-1.21 2.13,-1.58 0.93,-0.37 2.02,-0.55 3.27,-0.55 1,0 1.87,0.12 2.6,0.37 0.73,0.25 1.34,0.57 1.82,0.97 0.48,0.4 0.83,0.83 1.06,1.27 0.22,0.44 0.33,0.88 0.33,1.3 0,0.38 -0.14,0.74 -0.42,1.05 -0.28,0.31 -0.63,0.46 -1.04,0.46 -0.38,0 -0.67,-0.09 -0.86,-0.28 -0.2,-0.19 -0.41,-0.49 -0.64,-0.91 -0.3,-0.61 -0.65,-1.08 -1.07,-1.42 -0.41,-0.34 -1.08,-0.51 -2.01,-0.51 -0.85,0 -1.54,0.18 -2.06,0.55 -0.52,0.37 -0.79,0.81 -0.79,1.33 0,0.32 0.09,0.6 0.27,0.83 0.18,0.23 0.43,0.43 0.74,0.6 0.31,0.17 0.63,0.3 0.95,0.4 0.32,0.09 0.85,0.23 1.58,0.42 0.92,0.21 1.76,0.44 2.5,0.7 0.75,0.25 1.38,0.56 1.9,0.93 0.52,0.36 0.93,0.82 1.22,1.38 0.29,0.56 0.44,1.24 0.44,2.05z"/>
   <g>
    <path class="fil1" d="M89.29 17.58l-1.33 0 0 6.31c0,0.83 -0.18,1.44 -0.52,1.84 -0.35,0.39 -0.81,0.59 -1.37,0.59 -0.61,0 -1.08,-0.21 -1.41,-0.62 -0.33,-0.41 -0.5,-1.01 -0.5,-1.81l0 -15.13c0,-0.86 0.18,-1.48 0.55,-1.86 0.37,-0.39 0.96,-0.58 1.78,-0.58l6.19 0c0.85,0 1.58,0.04 2.19,0.11 0.61,0.08 1.16,0.23 1.64,0.46 0.59,0.26 1.11,0.63 1.57,1.11 0.45,0.49 0.8,1.05 1.03,1.68 0.24,0.64 0.35,1.32 0.35,2.04 0,1.46 -0.39,2.64 -1.18,3.52 -0.79,0.87 -1.99,1.5 -3.59,1.86 0.67,0.38 1.32,0.93 1.94,1.66 0.61,0.73 1.16,1.52 1.65,2.34 0.48,0.83 0.86,1.57 1.13,2.24 0.27,0.66 0.4,1.12 0.4,1.37 0,0.26 -0.08,0.51 -0.24,0.77 -0.16,0.26 -0.37,0.46 -0.65,0.6 -0.27,0.15 -0.59,0.22 -0.95,0.22 -0.42,0 -0.78,-0.11 -1.08,-0.32 -0.29,-0.21 -0.54,-0.48 -0.75,-0.8 -0.21,-0.32 -0.5,-0.8 -0.85,-1.42l-1.53 -2.66c-0.55,-0.97 -1.04,-1.71 -1.46,-2.22 -0.43,-0.51 -0.87,-0.86 -1.32,-1.05 -0.44,-0.19 -1,-0.28 -1.67,-0.28zm2.18 -8.27l-3.51 0 0 5.41 3.41 0c0.91,0 1.68,-0.08 2.31,-0.25 0.62,-0.17 1.1,-0.45 1.43,-0.85 0.33,-0.4 0.49,-0.95 0.49,-1.64 0,-0.55 -0.13,-1.03 -0.4,-1.45 -0.26,-0.42 -0.63,-0.73 -1.1,-0.93 -0.44,-0.2 -1.32,-0.29 -2.62,-0.29zm23.6 14.45l-0.9 -2.47 -7.64 0 -0.9 2.52c-0.35,0.99 -0.65,1.65 -0.9,1.99 -0.25,0.34 -0.65,0.52 -1.22,0.52 -0.48,0 -0.9,-0.18 -1.27,-0.55 -0.37,-0.37 -0.55,-0.78 -0.55,-1.25 0,-0.27 0.04,-0.55 0.13,-0.83 0.09,-0.29 0.23,-0.68 0.42,-1.2l4.8 -12.77c0.14,-0.37 0.3,-0.81 0.49,-1.32 0.19,-0.52 0.4,-0.94 0.62,-1.28 0.22,-0.34 0.5,-0.61 0.86,-0.82 0.35,-0.21 0.79,-0.32 1.31,-0.32 0.53,0 0.98,0.11 1.33,0.32 0.35,0.21 0.64,0.48 0.86,0.81 0.22,0.33 0.4,0.69 0.55,1.07 0.15,0.38 0.34,0.89 0.57,1.52l4.91 12.69c0.38,0.97 0.58,1.67 0.58,2.11 0,0.45 -0.18,0.87 -0.54,1.25 -0.36,0.38 -0.81,0.57 -1.32,0.57 -0.3,0 -0.56,-0.05 -0.77,-0.17 -0.21,-0.11 -0.39,-0.26 -0.54,-0.45 -0.14,-0.19 -0.3,-0.49 -0.46,-0.88 -0.17,-0.4 -0.31,-0.75 -0.43,-1.05zm-7.53 -5.46l5.61 0 -2.83 -8.1 -2.78 8.1zm15.83 -9.69l4.25 13.18 4.26 -13.27c0.22,-0.7 0.39,-1.19 0.5,-1.46 0.11,-0.28 0.3,-0.52 0.55,-0.74 0.26,-0.22 0.61,-0.33 1.05,-0.33 0.32,0 0.63,0.09 0.91,0.26 0.28,0.17 0.49,0.39 0.65,0.68 0.16,0.28 0.24,0.56 0.24,0.85 0,0.19 -0.03,0.41 -0.08,0.64 -0.05,0.23 -0.11,0.45 -0.19,0.67 -0.08,0.22 -0.16,0.44 -0.23,0.68l-4.54 12.85c-0.17,0.49 -0.33,0.96 -0.49,1.4 -0.16,0.44 -0.35,0.83 -0.56,1.17 -0.21,0.33 -0.49,0.61 -0.85,0.82 -0.35,0.21 -0.79,0.32 -1.3,0.32 -0.52,0 -0.95,-0.11 -1.3,-0.32 -0.35,-0.21 -0.64,-0.49 -0.86,-0.83 -0.21,-0.35 -0.41,-0.74 -0.57,-1.18 -0.16,-0.43 -0.32,-0.9 -0.49,-1.39l-4.47 -12.74c-0.08,-0.23 -0.16,-0.46 -0.24,-0.68 -0.08,-0.22 -0.15,-0.47 -0.21,-0.72 -0.06,-0.26 -0.08,-0.48 -0.08,-0.66 0,-0.45 0.17,-0.87 0.52,-1.24 0.35,-0.38 0.79,-0.56 1.32,-0.56 0.65,0 1.11,0.21 1.37,0.62 0.27,0.42 0.55,1.08 0.83,1.99zm27.64 0.79l-8.57 0 0 4.84 7.89 0c0.58,0 1.01,0.14 1.3,0.41 0.29,0.27 0.43,0.63 0.43,1.08 0,0.44 -0.14,0.81 -0.42,1.09 -0.28,0.28 -0.72,0.42 -1.31,0.42l-7.89 0 0 5.6 8.86 0c0.6,0 1.05,0.15 1.35,0.43 0.31,0.29 0.46,0.68 0.46,1.16 0,0.46 -0.15,0.84 -0.46,1.13 -0.3,0.29 -0.75,0.44 -1.35,0.44l-10.34 0c-0.83,0 -1.42,-0.19 -1.78,-0.58 -0.36,-0.38 -0.55,-1.01 -0.55,-1.86l0 -14.79c0,-0.57 0.08,-1.04 0.24,-1.4 0.16,-0.36 0.42,-0.63 0.76,-0.79 0.35,-0.17 0.79,-0.25 1.32,-0.25l10.04 0c0.61,0 1.06,0.14 1.35,0.42 0.29,0.28 0.44,0.65 0.44,1.11 0,0.47 -0.15,0.84 -0.44,1.13 -0.29,0.28 -0.74,0.42 -1.35,0.42zm8.85 -0.99l0 14.32 7.71 0c0.61,0 1.08,0.16 1.41,0.47 0.33,0.32 0.49,0.71 0.49,1.18 0,0.48 -0.16,0.87 -0.49,1.17 -0.32,0.3 -0.8,0.45 -1.42,0.45l-9.19 0c-0.83,0 -1.42,-0.19 -1.78,-0.58 -0.36,-0.38 -0.55,-1.01 -0.55,-1.86l0 -15.15c0,-0.8 0.18,-1.41 0.52,-1.81 0.35,-0.4 0.8,-0.6 1.36,-0.6 0.57,0 1.03,0.2 1.39,0.6 0.35,0.4 0.53,1.01 0.53,1.82z"/>
    <ellipse class="fil3" cx="73.81" cy="23.96" rx="1.92" ry="2.04"/>
    <path class="fil3" d="M81.42 7.05c0.32,0.33 0.49,0.75 0.49,1.27 0,0.53 -0.17,0.95 -0.49,1.27 -0.33,0.32 -0.82,0.48 -1.48,0.48l-4.19 0 0 2.32 0 5.13c0,0.88 -0.18,1.52 -0.54,1.95 -0.35,0.42 -0.81,0.63 -1.37,0.63 -0.57,0 -1.04,-0.21 -1.4,-0.64 -0.36,-0.43 -0.54,-1.07 -0.54,-1.94l0 -5.13 0 -2.32 -4.19 0c-0.66,0 -1.14,-0.16 -1.46,-0.48 -0.32,-0.32 -0.48,-0.74 -0.48,-1.27 0,-0.54 0.17,-0.97 0.5,-1.28 0.33,-0.32 0.81,-0.47 1.45,-0.47l12.24 0c0.67,0 1.16,0.16 1.49,0.49z"/>
   </g>
  </g>
 </g>
</svg>
